<?xml version="1.0" encoding="iso-8859-1"?>
<!-- Uploaded to: SVG Repo, www.svgrepo.com, Generator: SVG Repo Mixer Tools -->
<svg height="800px" width="800px" version="1.1" id="Layer_1" xmlns="http://www.w3.org/2000/svg" xmlns:xlink="http://www.w3.org/1999/xlink" 
	 viewBox="0 0 497.6 497.6" xml:space="preserve">
<circle style="fill:#6965A8;" cx="248.8" cy="248.8" r="248.8"/>
<path style="fill:#505091;" d="M248.8,0c137.6,0,248.8,111.2,248.8,248.8S386.4,497.6,248.8,497.6"/>
<polygon style="fill:#A1B7B6;" points="190.4,92 138.4,157.6 55.2,156.8 9.6,82.4 67.2,7.2 161.6,10.4 "/>
<polyline style="fill:#889E9C;" points="161.6,10.4 190.4,92 138.4,157.6 55.2,156.8 "/>
<polygon style="fill:#F9DCEA;" points="171.2,116 138.4,157.6 85.6,156.8 56.8,110.4 93.6,62.4 153.6,64 "/>
<polyline style="fill:#F2CCE0;" points="153.6,64 171.2,116 138.4,157.6 85.6,156.8 "/>
<polygon style="fill:#A1B7B6;" points="307.2,92 359.2,157.6 442.4,156.8 488,82.4 430.4,7.2 336,10.4 "/>
<polyline style="fill:#889E9C;" points="336,10.4 307.2,92 359.2,157.6 442.4,156.8 "/>
<polygon style="fill:#F9DCEA;" points="326.4,116 359.2,157.6 412,156.8 440.8,110.4 404,62.4 344,64 "/>
<polyline style="fill:#F2CCE0;" points="344,64 326.4,116 359.2,157.6 412,156.8 "/>
<polygon style="fill:#889E9C;" points="53.6,151.2 248.8,54.4 444,151.2 468,337.6 248.8,466.4 29.6,337.6 "/>
<polygon style="fill:#A1B7B6;" points="53.6,151.2 248.8,152 444,151.2 468,337.6 248.8,466.4 29.6,337.6 "/>
<polyline style="fill:#889E9C;" points="248.8,54.4 444,151.2 468,337.6 248.8,466.4 "/>
<polygon style="fill:#5E6664;" points="190.4,256.8 248.8,240.8 307.2,256.8 313.6,404.8 248.8,433.6 184,404.8 "/>
<polyline style="fill:#2F423F;" points="248.8,240.8 307.2,256.8 313.6,404.8 248.8,433.6 184,404.8 "/>
<path style="fill:#5E6664;" d="M180.8,203.2c0,10.4-9.6,19.2-21.6,19.2s-21.6-8.8-21.6-19.2s9.6-19.2,21.6-19.2
	S180.8,192,180.8,203.2z"/>
<path style="fill:#2F423F;" d="M174.4,189.6c8.8,7.2,8.8,20,0,27.2s-22.4,7.2-30.4,0"/>
<path style="fill:#5E6664;" d="M360,203.2c0,10.4-9.6,19.2-21.6,19.2s-21.6-8.8-21.6-19.2s9.6-19.2,21.6-19.2S360,192,360,203.2z"/>
<path style="fill:#2F423F;" d="M353.6,189.6c8.8,7.2,8.8,20,0,27.2c-8,7.2-22.4,7.2-30.4,0"/>
</svg>